<svg id="acfea3db-b68c-4fd3-bdc2-0b01383284db" data-name="Livello 1" xmlns="http://www.w3.org/2000/svg" xmlns:xlink="http://www.w3.org/1999/xlink" viewBox="0 0 512 512"><defs><clipPath id="af285662-f9a4-41b3-9542-f2e82a3ff20d"><path d="M2072.38-4374.54c-12.17,18.18-24.46,33.82-30.94,41.8-6.46-8-18.72-23.54-30.88-41.7-22.82-34.06-34.88-61.38-34.88-79,0-37.65,29.5-68.28,65.76-68.28s65.75,30.63,65.75,68.28C2107.19-4435.84,2095.15-4408.56,2072.38-4374.54Zm-30.94-160.15c-43.14,0-78.24,36.44-78.24,81.24,0,20.58,12.49,49.65,37.12,86.41a575,575,0,0,0,36.45,48.55l4.67,5.46,4.67-5.46a577.54,577.54,0,0,0,36.45-48.55c24.63-36.76,37.11-65.83,37.11-86.41C2119.67-4498.25,2084.58-4534.69,2041.44-4534.69Z" style="fill:none"/></clipPath></defs><path d="M337.27,85H384V3.61C376,2.5,348.21,0,315.91,0,248.52,0,202.36,42.39,202.36,120.3V192H128v91h74.37V512h91.18V283H364.9l11.32-91H293.51v-62.7c0-26.3,7.11-44.31,43.76-44.31Z"/></svg>