<?xml version="1.0" encoding="utf-8"?>
<!-- Generator: Adobe Illustrator 23.1.1, SVG Export Plug-In . SVG Version: 6.00 Build 0)  -->
<svg version="1.1" xmlns="http://www.w3.org/2000/svg" xmlns:xlink="http://www.w3.org/1999/xlink" x="0px" y="0px"
	 viewBox="0 0 512 512" style="enable-background:new 0 0 512 512;" xml:space="preserve">
<style type="text/css">
	.st0{fill:none;}
	.st1{fill:#FFFFFF;}
	.st2{fill-rule:evenodd;clip-rule:evenodd;fill:#FFCF26;}
	.st3{fill:#FFCF26;}
	.st4{fill-rule:evenodd;clip-rule:evenodd;}
</style>
<g id="Livello_1">
</g>
<g id="Livello_28">
</g>
<g id="Livello_6">
</g>
<g id="Livello_7">
</g>
<g id="Livello_8">
	<g>
		<path d="M370.5,1H140.8C62.8,1-0.7,64.4-0.7,142.4v229.7c0,78,63.5,141.5,141.5,141.5h229.7c78,0,141.5-63.5,141.5-141.5V142.4
			C512,64.4,448.5,1,370.5,1z M466.5,372.1c0,52.9-43.1,96-96,96H140.8c-52.9,0-96-43.1-96-96V142.4c0-52.9,43.1-96,96-96h229.7
			c52.9,0,96,43.1,96,96L466.5,372.1L466.5,372.1z"/>
		<path d="M255.7,125.2c-72.8,0-132.1,59.3-132.1,132.1c0,72.8,59.3,132.1,132.1,132.1s132.1-59.3,132.1-132.1
			C387.8,184.5,328.5,125.2,255.7,125.2z M255.7,343.9c-47.8,0-86.6-38.9-86.6-86.6c0-47.8,38.9-86.6,86.6-86.6s86.6,38.9,86.6,86.6
			C342.3,305.1,303.4,343.9,255.7,343.9z"/>
		<path d="M393.3,86.6c-8.8,0-17.4,3.5-23.6,9.8c-6.2,6.2-9.8,14.8-9.8,23.6c0,8.8,3.6,17.4,9.8,23.6c6.2,6.2,14.8,9.8,23.6,9.8
			c8.8,0,17.4-3.6,23.6-9.8c6.2-6.2,9.8-14.8,9.8-23.6c0-8.8-3.5-17.4-9.8-23.6C410.7,90.2,402.1,86.6,393.3,86.6z"/>
	</g>
</g>
<g id="Livello_9">
</g>
<g id="Livello_10">
</g>
<g id="Livello_11">
</g>
<g id="Livello_12">
</g>
<g id="Livello_13">
</g>
<g id="Livello_14">
</g>
<g id="Livello_15">
</g>
<g id="Livello_2">
</g>
<g id="Livello_16">
</g>
<g id="Livello_17">
</g>
<g id="Livello_18">
</g>
<g id="Livello_19">
</g>
<g id="Livello_20">
</g>
<g id="Livello_21">
</g>
<g id="Livello_22">
</g>
<g id="Livello_23">
</g>
<g id="Livello_24">
</g>
<g id="Livello_3">
</g>
<g id="Livello_25">
</g>
<g id="Livello_26">
</g>
<g id="Livello_27">
</g>
<g id="Livello_5">
</g>
</svg>
