<svg xmlns="http://www.w3.org/2000/svg" fill="none" viewBox="0 0 22 22">
  <g clip-path="url(#a)">
    <path fill="#1D1714" d="m21.84 8.147-2.852-2.854a.538.538 0 0 0-.761 0l-.38.38a1.062 1.062 0 0 1-1.522 0 1.062 1.062 0 0 1 0-1.52l.38-.381a.538.538 0 0 0 0-.761L13.852.158a.538.538 0 0 0-.76 0L.156 13.093a.538.538 0 0 0 0 .76l7.989 7.99c.21.21.55.21.76 0L21.842 8.908a.538.538 0 0 0 0-.76ZM8.527 20.7 1.3 13.473l8.749-8.75 1.332 1.331 5.896 5.897-8.75 8.75Zm9.51-9.51-6.633-6.634-.594-.595L13.472 1.3l2.092 2.093a2.16 2.16 0 0 0 0 3.043 2.16 2.16 0 0 0 3.044 0L20.7 8.528l-2.663 2.663Z"/>
    <path fill="#1D1714" d="M8.303 17.373a.456.456 0 0 0 .645 0l5.129-5.13a.456.456 0 1 0-.646-.645l-5.128 5.13a.457.457 0 0 0 0 .645ZM6.465 14.89a.457.457 0 0 0 .646.645l5.128-5.13a.456.456 0 1 0-.646-.644L6.466 14.89ZM10.4 7.922a.457.457 0 0 0-.645 0L4.627 13.05a.456.456 0 1 0 .645.645l5.129-5.13a.456.456 0 0 0 0-.644Z"/>
  </g>
  <defs>
    <clipPath id="a">
      <path fill="#fff" d="M0 0h22v22H0z"/>
    </clipPath>
  </defs>
</svg>
